<svg xmlns="http://www.w3.org/2000/svg" viewBox="0 0 32 32">
  <defs>
    <linearGradient id="grad" x1="0%" y1="0%" x2="100%" y2="100%">
      <stop offset="0%" style="stop-color:#06b6d4"/>
      <stop offset="100%" style="stop-color:#8b5cf6"/>
    </linearGradient>
  </defs>
  <rect width="32" height="32" rx="8" fill="#030712"/>
  <path d="M16 6C12.13 6 9 9.13 9 13v3H8c-1.1 0-2 .9-2 2v6c0 1.1.9 2 2 2h16c1.1 0 2-.9 2-2v-6c0-1.1-.9-2-2-2h-1v-3c0-3.87-3.13-7-7-7zm0 2c2.76 0 5 2.24 5 5v3h-10v-3c0-2.76 2.24-5 5-5zm0 10c1.1 0 2 .9 2 2s-.9 2-2 2-2-.9-2-2 .9-2 2-2z" fill="url(#grad)"/>
</svg>
